/* XPM */
static char *result[] = {
/* columns rows colors chars-per-pixel */
"32 32 226 2 ",
"   c #141618",
".  c #171819",
"X  c #1C1C1B",
"o  c #201E1D",
"O  c #21211E",
"+  c #262422",
"@  c #2C2623",
"#  c #282826",
"$  c #332B28",
"%  c #5A290E",
"&  c #662E16",
"*  c #6D3517",
"=  c #7E341B",
"-  c #46352D",
";  c #56372B",
":  c #693722",
">  c #6E3733",
",  c #324119",
"<  c #3D6B3D",
"1  c #535D1E",
"2  c #735A16",
"3  c #554E2E",
"4  c #475623",
"5  c #564539",
"6  c #714B2B",
"7  c #4D642C",
"8  c #436535",
"9  c #54633B",
"0  c #64642F",
"q  c #636A31",
"w  c #6D783C",
"e  c #78753E",
"r  c #584949",
"t  c #6A4A4D",
"y  c #744A4D",
"u  c #7D4F4F",
"i  c #71524F",
"p  c #784E52",
"a  c #685051",
"s  c #6B5658",
"d  c #6D5A5C",
"f  c #745552",
"g  c #7C5455",
"h  c #7D555B",
"j  c #755C5A",
"k  c #5B674A",
"l  c #4E7841",
"z  c #776E4F",
"x  c #7D615E",
"c  c #6C5961",
"v  c #765B63",
"b  c #7C6262",
"n  c #86381E",
"m  c #8A3B28",
"M  c #9A3829",
"N  c #A93B30",
"B  c #924519",
"V  c #AC481C",
"C  c #B4481C",
"Z  c #AE5418",
"A  c #874628",
"S  c #9A5422",
"D  c #944F37",
"F  c #AC4923",
"G  c #BA5226",
"H  c #A64233",
"J  c #986E29",
"K  c #B37030",
"L  c #C75627",
"P  c #DB5A2D",
"I  c #CA5F31",
"U  c #D35A35",
"Y  c #D96835",
"T  c #C8783A",
"R  c #D4793D",
"E  c #985E47",
"W  c #905D4B",
"Q  c #84585C",
"!  c #8B694A",
"~  c #966849",
"^  c #8A7C48",
"/  c #896559",
"(  c #916A54",
")  c #8E7858",
"_  c #AF7450",
"`  c #8B5C66",
"'  c #846465",
"]  c #916D6B",
"[  c #9C7867",
"{  c #9B7475",
"}  c #9A7578",
"|  c #A87262",
" . c #A86E77",
".. c #A96E7A",
"X. c #A57676",
"o. c #A3747E",
"O. c #AC737B",
"+. c #A27A7A",
"@. c #B1757D",
"#. c #D46F43",
"$. c #C67845",
"%. c #C27D4B",
"&. c #D47341",
"*. c #D57944",
"=. c #C77C53",
"-. c #DC7C51",
";. c #ED7F4A",
":. c #6D894B",
">. c #7C8854",
",. c #7B9457",
"<. c #778C6B",
"1. c #AC8437",
"2. c #D08E1C",
"3. c #DB8C3B",
"4. c #EF903D",
"5. c #FF9835",
"6. c #FF9B3C",
"7. c #FFBA3D",
"8. c #898A4C",
"9. c #99855A",
"0. c #909356",
"q. c #A68541",
"w. c #B68447",
"e. c #A7845A",
"r. c #A59358",
"t. c #BFA050",
"y. c #958968",
"u. c #8E906D",
"i. c #949566",
"p. c #B98A68",
"a. c #AC9071",
"s. c #ABA67C",
"d. c #B6B573",
"f. c #C38349",
"g. c #D7824C",
"h. c #D89D49",
"j. c #CB8257",
"k. c #D98755",
"l. c #DA985A",
"z. c #F38647",
"x. c #FF9B43",
"c. c #F1994B",
"v. c #FE9D4C",
"b. c #E99453",
"n. c #E3955A",
"m. c #F8985A",
"M. c #FFAA47",
"N. c #FEB64D",
"B. c #FFA757",
"V. c #C08D62",
"C. c #D88D6A",
"Z. c #D99B64",
"A. c #DE966A",
"S. c #DA986A",
"D. c #DB9774",
"F. c #E58F69",
"G. c #E39564",
"H. c #E3946A",
"J. c #E89568",
"K. c #FD9970",
"L. c #CEA568",
"P. c #C9A277",
"I. c #DAA478",
"U. c #DBB37B",
"Y. c #ECA76D",
"T. c #EEAC71",
"R. c #ECAC7A",
"E. c #F5A877",
"W. c #F2AC7D",
"Q. c #E4B37C",
"!. c #EAB17B",
"~. c #F2B570",
"^. c #FFC148",
"/. c #A47782",
"(. c #AB7682",
"). c #B37981",
"_. c #9D8480",
"`. c #A88686",
"'. c #AC8484",
"]. c #B48687",
"[. c #B68B8B",
"{. c #BC8D8C",
"}. c #BE928F",
"|. c #BC8D94",
" X c #B69592",
".X c #BD9394",
"XX c #BA9996",
"oX c #BD9699",
"OX c #BE9B9B",
"+X c #B6B587",
"@X c #BC96A1",
"#X c #C08F8D",
"$X c #C3928E",
"%X c #C78F94",
"&X c #C49493",
"*X c #CA9494",
"=X c #C59895",
"-X c #CA9995",
";X c #C4969A",
":X c #C9969C",
">X c #C39A9B",
",X c #C99B9B",
"<X c #C2AA8F",
"1X c #DDA789",
"2X c #DBB788",
"3X c #EDAD82",
"4X c #F6AE87",
"5X c #E5B281",
"6X c #EBB283",
"7X c #F9B887",
"8X c #E8B592",
"9X c #C798A1",
"0X c #C69BA2",
"qX c #CAA3A5",
"wX c #D4AAA9",
"eX c #D9B1AF",
"rX c #D3AFB1",
"tX c #DAB2B2",
"yX c #C8D79B",
"uX c #D6D499",
"iX c #F0C995",
"pX c #C8DCA4",
"aX c #D5D8A4",
"sX c #E0D4A0",
"dX c #DDECBF",
"fX c #EDF3C6",
/* pixels */
"s s d d d d d d d d d d d s s d d s s d s d d d v d a c v d s c ",
"oXOXqXqXrXrXrXrXOX>X0X>XOXoXOX>X>X=X=X;X=XoX0X;X|.0X0XoX} v /.@X",
"&X&X;X;X;X;X;X&X;X;X:X;X;X&X&X;X:X&X%X:X|.;X;X;X0X|.;X|.0X` |.0X",
"-X-X-X&X&X&X$X$X$X$X&X&X&X&X&X&X.X.X'.{.{ '.{ +.+.oXoXg h t qXoX",
"$X$X$X$X$X-X-X-X-X&X&X&X-X-X-X&X=X>X.XwX>XeXwXeX.X>X>X.X'.g oXOX",
"-X-X-X-X$X$X$X$X*X&X&X&X*X&X{.{.{.{.#X-X$X&X&X&X;X;X&X:X{.Q &X&X",
"&X&X&X&X&X&X&X&X}.' X X X X X X X X X X X s {.{.&X&X>X;X;Xu >X.X",
" XXXOXOXXXXX`.X X . $ p.I._ j.A.j.=.D.p.-   X 5 _.XX>X X{ ' } XX",
"x j f f f a X @ ~ D.j.$.*.R R R *.&.&.*.=.C.- . X - i / j i i f ",
"wX,X.X&X|.X @ -.*.R R R *.n.g.T &.k.g.&.*.#.-.K.- . X '..X>XwXtX",
";X&X;X:X[.@ D.g.R $.%.%.=.j.=.=.%.j.f.%.%.%.%.g.-.F.$ X [..X&X;X",
";X;X-X.XX @ 7Xn.n.Z.S.A.H.H.H.A.S.S.S.A.H.G.F.J.n.H.8X@ X #X-X&X",
"$X$X$Xa + 8X6XR.Q.2X5XW.R.!.!.!.5X5X5X5X6X3X3XR.!.Q.2X<X+ {.-X$X",
"-X$X].X + fXaXaXpXyXyXsXuXuXuXuXaXaXaXaXaXyXyXyXuXuXaXdX# x &X=X",
"$X$Xb X <.y.( [ a.i.i.y.y.s.+Xy.! [ [ ) ) s.+X+Xa.9.8.u.+ r =X$X",
".X>XX X e A M N H n * : : 6 A m M H N M n = A A = D * 6 o X ,X&X",
"g g X ^ ~.3.L U U G C G C C C L Y P P P L V F V Z Y G l.t.O y Q ",
">X>XX 6 f.c.B.v.6.5.6.6.x.x.v.B.z.z.;.;.v.x.x.M.B.m.I $.w.o +.oX",
"=X&XX X & S T 4.^.7.7.M.N.N.3.K S B B Z c.N.7.2.K K n & : X >X X",
"}.$X{ X X > & J 1.J 1.w.q.q.2 % ; ; 5 3 ~ f.1.2 ; 5 5 y o X XXOX",
"&X-X}.r X z z 0 q w 4 , 4 1 0 >.z k 9 9 9 7 7 l k 3 0 z O y oX>X",
"&X&X&X+.$ d.d.0.>.,.8 8 >.8.8.,.:.w ^ i.:.l < < 9 w r.8.O y qX|.",
";X&X:X].$ iXI.P.p.e.9.r.L.D.V.e.e.p.C.1Xs.y.y.] { p.U.P.+ p =X>X",
".X,X&X'.@ 7XT.Y.E.4X4XR.R.E.E.E.W.W.R.W.W.W.3X6X!.~.T.1X+ Q } OX",
"Q u y y X @ T.n.G.H.D.D.S.Z.A.H.G.Z.L.l.n.m.G.l.h.b.Y.@ X a i h ",
".X&X,X.Xt + | E E E ~ ~ W W ( ( ( ( ~ ~ ~ E E W ! | @ X c ;X;XoX",
">X=X=X>X[.X X X X X X X X X X X X X X X X X X X X X X /.].;X:X0X",
"&X}.X.{ +.qX.X+.&X.Xh Q p y oX.X;X;X:X].).O.O. .O.O.O.O.(.(.O...",
"-X-X-XeX&X.X&XeXwXqXwX[.].g 0X;X;X*X%X@.O.O.@.@.).O.....O.(.(.(.",
"#X$X$X-X&X,X$X}.,X[.,X.X.Xg .X&X-X*X%XO. ...@.O...O.(.(.(./.o.o.",
"-X&X&X$X$X$X&X&X&X&X&X=X.Xg ,X&X-X*X*X@.O.@.O.O.(. .` Q h h v h ",
"#X$X$X-X&X,X&X}.,X[.,X.X.Xg .X&X-X*X%XO. ...@.O...O.(.(.(./.o.o."
};