/* XPM */
static char *result[] = {
/* columns rows colors chars-per-pixel */
"32 32 177 2 ",
"   c #1D0A0D",
".  c #1F1412",
"X  c #240B05",
"o  c #220E0C",
"O  c #2C0B0B",
"+  c #330B00",
"@  c #320C0B",
"#  c #26140E",
"$  c #2C150F",
"%  c #321102",
"&  c #3A1705",
"*  c #3B150C",
"=  c #221414",
"-  c #2A1410",
";  c #221916",
":  c #2C1817",
">  c #24151A",
",  c #261A1A",
"<  c #2F1A19",
"1  c #311C17",
"2  c #311718",
"3  c #3A1618",
"4  c #331B1B",
"5  c #1E1321",
"6  c #241A24",
"7  c #431516",
"8  c #6B4749",
"9  c #6E4F4C",
"0  c #764B4D",
"q  c #7C4F4F",
"w  c #72514F",
"e  c #614E52",
"r  c #734F51",
"t  c #7A4E50",
"y  c #7C4E59",
"u  c #6D5656",
"i  c #66555B",
"p  c #6B5759",
"a  c #6D5A5C",
"s  c #755553",
"d  c #7B5354",
"f  c #795A55",
"g  c #7D555B",
"h  c #705C5D",
"j  c #7C5A59",
"k  c #7F605D",
"l  c #6D5D61",
"z  c #7D5560",
"x  c #735F64",
"c  c #825457",
"v  c #825559",
"b  c #83595A",
"n  c #8A5C5E",
"m  c #80615E",
"M  c #8B5C66",
"N  c #846160",
"B  c #94606C",
"V  c #9C706F",
"C  c #957271",
"Z  c #9B7576",
"A  c #9A7876",
"S  c #9D737F",
"D  c #A67A6D",
"F  c #AA6E76",
"G  c #A46F79",
"H  c #A96E7A",
"J  c #A37575",
"K  c #A97077",
"L  c #A87C71",
"P  c #A3747E",
"I  c #AC737C",
"U  c #A37B7B",
"Y  c #AA7C7B",
"T  c #B0747D",
"R  c #A8826E",
"E  c #A5827F",
"W  c #AC807F",
"Q  c #B0837E",
"!  c #B18D7C",
"~  c #A47480",
"^  c #AB7682",
"/  c #A07883",
"(  c #AD7F81",
")  c #B37781",
"_  c #A28380",
"`  c #AD8382",
"'  c #A88B87",
"]  c #A68E8C",
"[  c #B18481",
"{  c #B68B8B",
"}  c #BA8D8E",
"|  c #B2908E",
" . c #BE928E",
".. c #B58E91",
"X. c #BB8D93",
"o. c #B69593",
"O. c #BD9494",
"+. c #BB9996",
"@. c #BD9599",
"#. c #BE9A9A",
"$. c #BFA09D",
"%. c #BC96A1",
"&. c #C08F8B",
"*. c #C3938E",
"=. c #C28E93",
"-. c #CA8F95",
";. c #C49493",
":. c #CA9493",
">. c #C49995",
",. c #CA9995",
"<. c #C49699",
"1. c #C9969B",
"2. c #C39A9B",
"3. c #C99B9B",
"4. c #C2A09F",
"5. c #CEA19E",
"6. c #DEB99F",
"7. c #C596A0",
"8. c #C69BA2",
"9. c #CC9CA2",
"0. c #C5A2A3",
"q. c #CBA1A2",
"w. c #CDAAA7",
"e. c #CDA6A9",
"r. c #C5ADAD",
"t. c #CFABAB",
"y. c #D2A7A6",
"u. c #D4A9A7",
"i. c #D3A5A8",
"p. c #D4ACAB",
"a. c #DAADAB",
"s. c #CEB1AA",
"d. c #D2B3AD",
"f. c #DCB2AC",
"g. c #D3AFB1",
"h. c #CAB7B9",
"j. c #CDBBBB",
"k. c #D4B0B2",
"l. c #DBB4B3",
"z. c #D7BAB3",
"x. c #DFBCBB",
"c. c #E0B3A0",
"v. c #E3B7AA",
"b. c #E4BDBD",
"n. c #CFC0B9",
"m. c #D1C0B9",
"M. c #EDC1B6",
"N. c #E8CCBE",
"B. c #F0C4BB",
"V. c #F7D4BD",
"C. c #FBD3BC",
"Z. c #E9C1C1",
"A. c #F3CDC0",
"S. c #FECFC4",
"D. c #F0C8C9",
"F. c #FDD4C3",
"G. c #F5D8C4",
"H. c #FBD9C5",
"J. c #F4D6CD",
"K. c #FED4CC",
"L. c #F0DACF",
"P. c #FEDCC9",
"I. c #E7D9D1",
"U. c #EAD9DA",
"Y. c #F0D6D7",
"T. c #FFD6D1",
"R. c #F3DAD6",
"E. c #FFDCD3",
"W. c #FFE1CE",
"Q. c #FFE2D7",
"!. c #FFE6DD",
"~. c #E6D9E0",
"^. c #ECE1E9",
"/. c #FFE8E1",
"(. c #FFE9EC",
"). c #FFF1EE",
"_. c #FFFAEC",
/* pixels */
"p p a a a h a a a a h a a p p a a u u h p a a a x a e l x a i l ",
"@.#.0.e.t.g.g.k.#.2.8.2.#.@.#.2.2.<.<.<.<.@.7.<.X.8.8.@.S z / %.",
";.;.<.<.<.<.<.;.<.<.1.<.<.;.;.<.1.;.=.1.X.<.<.<.9.X.<.X.7.M X.7.",
",.,.,.;.;.;.*.*.*.*.;.;.;.;.;.;.O.O.` } Z ` Z J J O.@.g g 8 0.@.",
"*.*.*.*.*.,.,.,.,.;.;.;.,.,.. ; ; . O.u.2.a.p.f.O.2.2.o.` d o.#.",
",.,.,.,.*.*.*.*.:.;.:.;.o 1 m.I.I.n.1 o *.;.;.;.<.<.;.1.} v <.;.",
";.;.;.;.;.;.;.;.;.<.>.X z.J.L._._.L.J.z.X *.,.;.;.;.>.<.<.q >.O.",
"o.+.#.#.+.+.+.+.o.$.$ s.J.Q.N._._.N.Q.J.s.$ +.+.#.#.2.o.C N A +.",
"k f s s s s s s j s X E.E.A.W.G.G.W.A.E.E.X s s s 9 s m j w w s ",
"i.3.O.;.<.<.<.2...# d.K.P.P.F.H.H.F.P.K.K.d.# p.p.3.O.O.O.2.p.l.",
"<.;.<.1.<.X.;.3.9.$ d.E.S.F.W.F.V.W.F.S.E.d.- ;.;.;.3.1.;.O.;.<.",
"<.<.<.<.} ( ` { U o l.K.F.F.P.V.V.P.F.F.K.l.o ;.1.;.;.;.=.;.,.;.",
"*.*.*.,.5.5.y.f.O.1 E f.E.K.F.P.P.F.F.E.f.E 1 ,.;.*.;.,.;.,.,.*.",
",.*.*.*.;.;.;.>.;.# x.[ T.L ! H.H.! D K.Q x.# *.;.*.;.;. . .;.>.",
"*.;.>.;.*.*.;.>.*.: t.Y T.B.& G.H.& M.K.Y t.: >.>. .;.>.;.;.>.*.",
"O.2.O.2.O.>.O.#.O.#.@ 7 a./.% G.G.% !.a.7 @ <.O.;.>.;.;.<.<.3.;.",
"d d d d d d d d b b 0 @ W f.G.P.W.G.f.` @ d d d j 0 d v d v 0 c ",
"2.2.q.q.l.l.Z.Z.b.p.2.).@ * R 6.6.R * @ ).#.+.#.+.| 0.4.C d U o.",
">.;.>. .;. .;.;.;.2.O.4 z.F.P.C.C.P.F.z.4 o.o.+.+.o.o.+.#.j #.o.",
" .*.;.>.;.>.<.>.>.>.> R.H.F.P.F.F.P.F.H.R.> ;.>.O.w.O.{ 2.w o.#.",
";.,.;.,.*.,.*.;.>. .  d.! C.P.F.F.P.C.! d.  3.;.O.{ 3.2.Y d @.2.",
";.;.;.<.;.;.;.;. .  (._ * F.F.F.F.F.F.* _ (.  Y 3.v 0 d d t q.O.",
"<.;.1. .<. .<.<., j.Y.O @ f.F.F.F.F.f.@ O Y.j., a.p.>.O.2.t <.2.",
"O.1.;.3.} >.;.<.= U.r.4 3 p.v.c.c.v.p.3 4 r.U.= +.+.2.o.Z N Z #.",
"n t 0 b b d q b v = 4 d O l.f.+ + f.l.O f 4 = j d s s j d r r g ",
"O.;.3.;.O.<.<.O...@.8.2.- ' O @.+.O ' - w.p.l.b.D.Z.l.e.8.7.<.@.",
">.>.<.>.;.O.O.2.2.@.@...< ] 2 #.O.2 ] < >.>.>.3.X.<.1.<.=.<.1.7.",
";. .J V U q.O.J ;.#.g > U.h.o O.<.o h.U.> I I K I I I I ^ ^ I P ",
",.,.,.a.;.O.;.f.u.q.y.6 ^.~.> <.;.> ~.^.6 I T T ) I H H I ^ ^ ^ ",
"&.*.*.,.;.3.;. .3.{ 3.O.5 6 O.;.,.:.6 5 F F T I H I ^ ^ ^ ~ P P ",
",.;.;.*.;.*.;.;.;.;.;.>.O.d 3.;.:.:.:.T I I I I ^ G B v y g g g ",
"&.*.*.,.;.3.;. .3.{ 3.O.O.d O.;.,.:.-.I F F T I H I ^ ^ ^ ~ P P "
};