/* XPM */
static char *a2b3353a47cc47a8bec8ec2a3c7c1c85jAN4Tosl2DZ9EwwY[] = {
/* columns rows colors chars-per-pixel */
"32 32 144 2 ",
"   c None",
".  c #4B363D",
"X  c #493841",
"o  c #6E5358",
"O  c #655464",
"+  c #6C5665",
"@  c #6E5867",
"#  c #655D6D",
"$  c #6D5A69",
"%  c #715565",
"&  c #785665",
"*  c #705867",
"=  c #725B6A",
"-  c #7C5C6B",
";  c #71606F",
":  c #7F606B",
">  c #666776",
",  c #6E6171",
"<  c #6C6C7B",
"1  c #706270",
"2  c #7B6272",
"3  c #716F7D",
"4  c #71717F",
"5  c #825C6B",
"6  c #895E6C",
"7  c #84626D",
"8  c #94646F",
"9  c #856271",
"0  c #8C6472",
"q  c #876871",
"w  c #8D6B73",
"e  c #936673",
"r  c #9A6775",
"t  c #976874",
"y  c #9C6A76",
"u  c #9F6A78",
"i  c #917175",
"p  c #967479",
"a  c #9B7378",
"s  c #9A7B7D",
"d  c #A36D76",
"f  c #AB6B76",
"g  c #A46D79",
"h  c #A96F7B",
"j  c #A37177",
"k  c #A77479",
"l  c #AB737C",
"z  c #A37C7E",
"x  c #B3737E",
"c  c #BA757F",
"v  c #6A7381",
"b  c #647F8F",
"n  c #9B7F81",
"m  c #A07F81",
"M  c #BB7681",
"N  c #C07883",
"B  c #CF7E83",
"V  c #D27F83",
"C  c #658594",
"Z  c #6A8595",
"A  c #6F8896",
"S  c #688A99",
"D  c #728B97",
"F  c #738C98",
"G  c #7295A1",
"H  c #978080",
"J  c #998284",
"K  c #998688",
"L  c #9B898A",
"P  c #AC8684",
"I  c #AE8D89",
"U  c #B38987",
"Y  c #BC8C89",
"T  c #AD928E",
"R  c #BE928E",
"E  c #AC9591",
"W  c #AC9B97",
"Q  c #AB9C98",
"!  c #C18484",
"~  c #DE8788",
"^  c #D5938E",
"/  c #DC928E",
"(  c #C49C92",
")  c #CC9E93",
"_  c #DF9690",
"`  c #DF9891",
"'  c #EA8B8B",
"]  c #E09891",
"[  c #C9A196",
"{  c #EAA196",
"}  c #EFA599",
"|  c #ECAE9E",
" . c #F6A79B",
".. c #F3AA9D",
"X. c #FAAC9E",
"o. c #F5AFA0",
"O. c #FDAFA1",
"+. c #E7BDA7",
"@. c #ECBCA7",
"#. c #E3B7A9",
"$. c #FCB0A1",
"%. c #F4B9A5",
"&. c #F6C3AB",
"*. c #FFC7AF",
"=. c #FEC2AB",
"-. c #F4C8AE",
";. c #F8CBAF",
":. c #FDC8AE",
">. c #F9CAAF",
",. c #FFCBB0",
"<. c #F9CCB0",
"1. c #F8CCB0",
"2. c #F9CEB2",
"3. c #FDCEB1",
"4. c #FCC8B5",
"5. c #F9CDB0",
"6. c #F6CAB8",
"7. c #FFD0B2",
"8. c #FFD3B5",
"9. c #FCD4B7",
"0. c #FFD6B6",
"q. c #FFD3B5",
"w. c #FDD5B9",
"e. c #FFD7B8",
"r. c #FFD6B8",
"t. c #FFD8B8",
"y. c #FED8B9",
"u. c #FFD8B9",
"i. c #FFD9B9",
"p. c PeachPuff",
"a. c #FFD9BA",
"s. c #FFDBBA",
"d. c #FFDABB",
"f. c #FFD9BC",
"g. c #FDDABD",
"h. c #FFDBBD",
"j. c #FFDFBD",
"k. c #FFD9BC",
"l. c #FFE1BE",
"z. c #FDDDC0",
"x. c #FFE4C3",
"c. c #FFE3C4",
"v. c #FFE6C7",
"b. c #FFE2C4",
/* pixels */
"            i p w I I E T W P 7 z I T T E Q T w p i             ",
"      . H #.s.( ( l.8.y.w.g.y.m &.t.t.t.g.y.l.( ( p.#.H .       ",
"    o 6.x.9.:.Y Y ,.=.=.=.=.=.a | :.=.=.=.=.,.Y Y :.0.v.6.o     ",
"  X 4.y.&...' f 7 d u u d y d - y d y y y d d 7 f ' } &.y.4.X   ",
"  ( 3.;.} V - + r 0 O O O O O + O O O O O O q y * 7 ! } ;.2.R   ",
"7 &.2.%.~ @ + 7 9 - + @ @ = * @ * * * * $ $ - - @ O % ~ %.7.&.7 ",
"s t.0.X.8 = l M h @ @ @ @ @ @ @ @ @ @ @ @ @ + - d g - 8 X.0.t.m ",
": U I l @ & e 0 9 @ @ @ @ @ @ @ @ @ @ @ @ * @ * 0 e & @ l I U : ",
"i @.+./ 7 v - g h e O @ @ @ @ @ @ @ @ @ @ @ @ y g - v 7 ] +.@.t ",
"L b.7.X.9 A 2 l M g + @ @ @ @ @ @ @ @ @ @ @ = M x 2 D 9 X.3.x.L ",
"J y.2...5 5 u g g 0 + $ @ @ @ @ @ @ @ @ @ @ $ e u y - - ..2.g.J ",
"H w.2...- @ = * @ @ @ @ @ @ @ @ @ @ @ @ @ + - e 0 e 0 5 ..2.w.H ",
"s y.t.$.6 g x l g @ @ @ @ @ @ @ @ @ @ @ @ + g M c c x 6 O.w.y.s ",
"q [ [ ! - 0 y y e @ @ @ @ @ @ @ @ @ @ @ @ @ 7 y t y 0 - Y ) [ q ",
"q ) [ ! - 0 y e = @ @ @ @ @ @ @ @ @ @ @ $ $ + O - t 0 - ! [ ) q ",
"K b.0.$.6 x M M 9 + @ @ @ @ @ @ @ @ @ @ $ $ = + u M x 6 $.0.x.J ",
"K g.4.} - 9 e q = , A = + @ @ @ @ @ @ $ o < b + - e 9 5 o.-.g.J ",
"H y.2.o.5 + - = @ # S 1 + @ @ @ @ @ @ $ % 3 b * @ e e 5  .4.w.J ",
"s 0.8.O.& 5 N g O # Z = % @ @ @ @ @ @ @ % 3 b + @ M M 5 o.0.w.s ",
"i +.+._ - = 0 - @ $ Z = + @ @ @ @ @ @ $ + 3 b + + - = - ] +.@.i ",
": U I l - g g g - # Z , + @ @ @ @ @ @ @ + 3 b + - 7 = % l I U 7 ",
"H j.0.O.6 h x M 5 # Z = + @ @ @ @ @ @ $ + 3 b O e M - - O.0.j.s ",
"L z.-...- 5 e 9 % > S 1 + @ @ @ @ @ @ @ % v C @ - 0 - - ..-.z.L ",
"n y.2...5 2 r h - + < = @ @ @ @ @ @ @ @ + = > 5 l y 2 5 ..2.w.n ",
"s 8.2. .9 G $ M 9 + % @ @ @ @ @ @ @ @ @ @ % O 9 M , G 9 ..2.8.n ",
"p 8.8. .- > - e * @ @ @ @ @ @ @ @ @ @ @ @ % @ * r - # 5  .8.8.p ",
": P P j - e u y e @ @ @ @ @ @ @ @ @ @ @ @ @ = e e y e = j P P - ",
"p <.-.{ 5 g x l g = @ @ @ @ @ @ @ @ @ @ @ @ * x M M M 5 ] -.;.p ",
"L b.<.o.- O = @ + + $ @ @ @ @ @ @ @ @ @ @ @ $ 9 0 e 5 5 $.<.b.L ",
"s w.8. .6 r h g - + $ @ @ @ @ @ @ @ @ @ @ @ @ @ - 5 $ 5 O.8.w.s ",
"q / ^ B - y h g - + @ @ @ @ @ @ @ @ @ @ @ @ + - l g - = V / / 0 ",
"@ + + + @ + + + @ @ @ @ @ @ @ @ @ @ @ @ @ @ $ @ @ @ @ @ + O O @ "
};