/* XPM */
static char *_53e4e63956b4b93d806ea59e46804a3K4MgzBFAygHGFM58[] = {
/* columns rows colors chars-per-pixel */
"32 32 163 2 ",
"   c None",
".  c #54404E",
"X  c #5D5365",
"o  c #635566",
"O  c #695464",
"+  c #6E5867",
"@  c #605768",
"#  c #645A69",
"$  c #6C5C6B",
"%  c #755867",
"&  c #755B6A",
"*  c #7B5D6C",
"=  c #795F73",
"-  c #77606E",
";  c #7B616D",
":  c #6C6272",
">  c #676979",
",  c #6D6B7A",
"<  c #736675",
"1  c #7C6571",
"2  c #7B6874",
"3  c #706F7C",
"4  c #7D6C79",
"5  c #6D707E",
"6  c #855D6C",
"7  c #895D6B",
"8  c #865F70",
"9  c #85616F",
"0  c #8A616F",
"q  c #856471",
"w  c #8D6572",
"e  c #8D6D76",
"r  c #816E79",
"t  c #8E6F7C",
"y  c #936573",
"u  c #936D75",
"i  c #9B6B75",
"p  c #986E78",
"a  c #8E7177",
"s  c #85737C",
"d  c #8E7079",
"f  c #937177",
"g  c #927379",
"h  c #9C767A",
"j  c #9C7C7D",
"k  c #A66D79",
"l  c #AA6E7B",
"z  c #B06F7B",
"x  c #A2737B",
"c  c #AE707C",
"v  c #A37C7F",
"b  c #AA787F",
"n  c #B0717D",
"m  c #BD737C",
"M  c #BB787D",
"N  c #6D7686",
"B  c #6E7887",
"V  c #707887",
"C  c #7D7C87",
"Z  c #727988",
"A  c #807E89",
"S  c #A47E81",
"D  c #B27E82",
"F  c #C47D81",
"G  c #C87D81",
"H  c #77818E",
"J  c #7B8C96",
"K  c #7E96A1",
"L  c #82818A",
"P  c #9E8383",
"I  c #9E8C8C",
"U  c #808E98",
"Y  c #82969F",
"T  c #A58383",
"R  c #AA8183",
"E  c #AD8A87",
"W  c #A38C8B",
"Q  c #B48286",
"!  c #B98486",
"~  c #BE8A87",
"^  c #B68588",
"/  c #BF8688",
"(  c #B98D8C",
")  c #A2908F",
"_  c #BB918E",
"`  c #B29394",
"'  c #839AA4",
"]  c #C48485",
"[  c #C18D8C",
"{  c #CB8C8A",
"}  c #D28888",
"|  c #C2918E",
" . c #D0948E",
".. c #C49591",
"X. c #C99692",
"o. c #C69893",
"O. c #CB9A94",
"+. c #D29D92",
"@. c #DB9B92",
"#. c #E38286",
"$. c #E38A89",
"%. c #E98D8D",
"&. c #E2908D",
"*. c #E69590",
"=. c #F49993",
"-. c #C6A094",
";. c #D4A196",
":. c #DAA397",
">. c #D2A799",
",. c #D6AC9C",
"<. c #D9AF9D",
"1. c #DBB19E",
"2. c #E8A497",
"3. c #EFA59A",
"4. c #EAAF9E",
"5. c #DAADA1",
"6. c #D9B2A1",
"7. c #D9B8A7",
"8. c #DBB7AA",
"9. c #D8BEAD",
"0. c #E3B7A3",
"q. c #E3B9A5",
"w. c #E9BAA5",
"e. c #FCB7A4",
"r. c #F4BCA6",
"t. c #FDBBA6",
"y. c #F1BFA8",
"u. c #FEBEA8",
"i. c #D8C7B6",
"p. c #F4C1A9",
"a. c #FBC5AC",
"s. c #F7C8AD",
"d. c #F9CAAE",
"f. c #FBCAAF",
"g. c #FBCBAF",
"h. c #FACAAF",
"j. c #F9C9AE",
"k. c #FBCCAF",
"l. c #F9CDB1",
"z. c #FBCEB0",
"x. c #FFCDB0",
"c. c #FFCFB2",
"v. c #FECDB1",
"b. c #FFD0B3",
"n. c #FFD3B3",
"m. c #FBD1B4",
"M. c #FFD3B4",
"N. c #FFD7B5",
"B. c #FFD7B7",
"V. c #FFD4B5",
"C. c #FFD4B5",
"Z. c #FFD9B7",
"A. c #FFD9B7",
"S. c #FBD3B8",
"D. c #FFDBB8",
"F. c #FFDDBA",
"G. c #FFDEBB",
"H. c #FBD9BD",
"J. c #FFDDBA",
"K. c #FFE0BD",
"L. c #FFE4C2",
"P. c #FFE8C6",
"I. c #FFE8C6",
/* pixels */
"            T ; a T T ) W W f f v T W T I ) g e h               ",
"      = j a.v.a >.Z.s.k.k.k.1.w.x.k.k.k.d.n.<.-.n.k.E t         ",
"    Q w.H.v.f.e X.b.f.l.k.b.;.@.r.k.k.k.s.n.>.~ t.z.z.S.`       ",
"  . 8.F.p.3.$.0 w i i i i i w u i i i i i k 0 i #.&.y.M.s...    ",
"  +.M.p.3.F & O 8 k c c l z i & # : 0 c n c n y ; n &.r.N.5..   ",
"h 0.Z.e.F O + & & & & & * & % + $ $ + % + + + + + % n 2.a.v.O.O ",
"j q.F.:.0 + w l ! [ [ ..| / x 6 $ < 0 b ( ( ( ( ! k * { u.Z.<.O ",
"; j R u & + 6 q e d e e d e q & $ : ; f a a a a a 9 & w v T u + ",
"h q.b. .7 $ , q ^ O.........X.u X r [ ......o.^ q , @ ] u.b.;.O ",
"I q.F.;.6 3 Y < R O.......| O.f X s X.......O.R < Y > { e.I.i.O ",
"P q.F.;.6 9 ( | | ..........X.e @ r / ..........| ( ; { u.F.<.O ",
"P q.F.;.6 + + % + + + $ + + + + : 4 h S T S S S T v * { r.F.7.O ",
"P 0.D.;.6 9 l n c c c c c c c 0 @ s X...............e { u.D.<.O ",
"u ,.r./ 6 * k x k k k k k k k 9 # r D ( ( ( ( ( ( ( 1 M 4.y.[ O ",
"u ,.r./ 6 9 _ _ ( ( ( ( ( ( ( w X 2 D ( ( ( ( ( _ ( ; M 4.y.[ O ",
"P q.K.;.7 g | o.............^ q O * S ..........X...e  .e.K.9.O ",
"I q.F.;.6 ; S D S S S S S S 2 J ' H C h S S S S S S * { u.L.9.O ",
"I q.D.;.7 + & & & & & & & & + J ' B A D | ......X...q { e.I.i.O ",
"j 0.F.;.6 % x n n z l n l n ; J ' N L ..X...........e { u.Z.<.O ",
"h 0.b. .9 + * 9 6 w 9 9 8 q & J ' B C w e d e d g e + ] u.b.O.O ",
"; j T u * e | o...........[ 1 J ' V C * 6 w q 8 0 0 % e v T u + ",
"P 0.D.;.0 a | o...........o.2 J ' B C l z l z l n l * { u.F.<.O ",
"I q.K.;.7 % - - - - * - * * $ J ' B C & & & & & & & O [ e.I.i.O ",
"P q.D.;.6 * e b [ o.....X...p 4 N : t ( X...o.[ D e & { t.L.9.O ",
"P q.K.;.6 5 K : R O.........o.p X r | ......O.R : K > { u.Z.<.O ",
"j q.D.+.7 O + y ^ _ ^ _ ( ( ( w X s [ ( ( ( _ Q y + o { u.Z.,.O ",
"& ; q - % ; k k k k k k k k w * # 2 Q ( ( ( ( ( ( ( q & 9 1 * + ",
"j 0.N.+.7 9 c n c c c c c c i * @ 4 o.........X.....e { r.N.;.O ",
"I q.D.;.6 + + + O + + + + + + + $ 2 h S S S S S T T & { u.I.i.O ",
"j q.D.;.7 w | o...........|  .e @ : % & & & & & & & O { a.n.,.O ",
"i } =.F 6 w ..o.............X.e @ = 8 l n l n l z l & m %.=.F O ",
"+ + + + + + + + + + + + + + + + + + + + + + + + + & + + + + + % "
};