/* XPM */
static char *result[] = {
/* columns rows colors chars-per-pixel */
"96 96 2 1 ",
"  c black",
". c #C7506B",
/* pixels */
"                                                                                                ",
"                                                                                                ",
"                                                                                                ",
"                                                                                                ",
"                                                                                                ",
"                                                                                                ",
"                                                                                                ",
"                                                                                                ",
"                                                                                                ",
"               ......      ......         ............         ......      ......               ",
"               ......      ......         ............         ......      ......               ",
"               ......      ......         ............         ......      ......               ",
"               ......      ......      ..................      ......      ......               ",
"               ......      ......      ..................      ......      ......               ",
"               ......      ......      ..................      ......      ......               ",
"               ......      ......      ......      ......      ......      ......               ",
"               ......      ......      ......      ......      ......      ......               ",
"               ......      ......      ......      ......      ......      ......               ",
"               ......      ......      ......      ......      ......      ......               ",
"               ......      ......      ......      ......      ......      ......               ",
"               ......      ......      ......      ......      ......      ......               ",
"               ......      ......      ......      ......      ......      ......               ",
"               ......      ......      ......      ......      ......      ......               ",
"               ......      ......      ......      ......      ......      ......               ",
"               ..................      ......      ......      ......      ......               ",
"               ..................      ......      ......      ......      ......               ",
"               ..................      ......      ......      ......      ......               ",
"                  ...............      ......      ......      ......      ......               ",
"                  ...............      ......      ......      ......      ......               ",
"                  ...............      ......      ......      ......      ......               ",
"                           ......      ......      ......      ......   .........               ",
"                           ......      ......      ......      ......   .........               ",
"                           ......      ......      ......      ......   .........               ",
"                  ...............      ..................      ..................               ",
"                  ...............      ..................      ..................               ",
"                  ...............      ..................      ..................               ",
"                  ............            ............            .........   ...               ",
"                  ............            ............            .........   ...               ",
"                  ............            ............            .........   ...               ",
"                                                                                                ",
"                                                                                                ",
"                                                                                                ",
"                                                                                                ",
"                                                                                                ",
"                                                                                                ",
"         ......               ............            ............         ............         ",
"         ......               ............            ............         ............         ",
"         ......               ............            ............         ............         ",
"         ......            ..................      ...............      ...............         ",
"         ......            ..................      ...............      ...............         ",
"         ......            ..................      ...............      ...............         ",
"         ......            ......      ......      ......               ......                  ",
"         ......            ......      ......      ......               ......                  ",
"         ......            ......      ......      ......               ......                  ",
"         ......            ......      ......      ......               ......                  ",
"         ......            ......      ......      ......               ......                  ",
"         ......            ......      ......      ......               ......                  ",
"         ......            ......      ......      ...............      ............            ",
"         ......            ......      ......      ...............      ............            ",
"         ......            ......      ......      ...............      ............            ",
"         ......            ......      ......      ...............      ............            ",
"         ......            ......      ......      ...............      ............            ",
"         ......            ......      ......      ...............      ............            ",
"         ......            ......      ......               ......      ......                  ",
"         ......            ......      ......               ......      ......                  ",
"         ......            ......      ......               ......      ......                  ",
"         ......            ......      ......               ......      ......                  ",
"         ......            ......      ......               ......      ......                  ",
"         ......            ......      ......               ......      ......                  ",
"         ............      ..................      ...............      ...............         ",
"         ............      ..................      ...............      ...............         ",
"         ............      ..................      ...............      ...............         ",
"         ............         ............         ............            ............         ",
"         ............         ............         ............            ............         ",
"         ............         ............         ............            ............         ",
"                                                                                                ",
"                                                                                                ",
"                                                                                                ",
"                                                                                                ",
"                                                                                                ",
"                                                                                                ",
"                                          ...      ...                                          ",
"                                          ...      ...                                          ",
"                                          ...      ...                                          ",
"                                                                                                ",
"                                                                                                ",
"                                                                                                ",
"                                          ............                                          ",
"                                          ............                                          ",
"                                          ............                                          ",
"                                       ...            ...                                       ",
"                                       ...            ...                                       ",
"                                       ...            ...                                       ",
"                                                                                                ",
"                                                                                                ",
"                                                                                                "
};