/* XPM */
static char *result[] = {
/* columns rows colors chars-per-pixel */
"32 32 195 2 ",
"   c #0D0000",
".  c #120000",
"X  c #1E0000",
"o  c #170D09",
"O  c #18130E",
"+  c #0E0E10",
"@  c #180D15",
"#  c #1C0E1A",
"$  c #0F1316",
"%  c #131215",
"&  c #191513",
"*  c #1D131B",
"=  c #181719",
"-  c #1D191D",
";  c #200000",
":  c #24160E",
">  c #211813",
",  c #23141E",
"<  c #3A2013",
"1  c #3D291D",
"2  c #251421",
"3  c #231C22",
"4  c #291924",
"5  c #2C1C29",
"6  c #252524",
"7  c #272628",
"8  c #2C2C2B",
"9  c #3E2A21",
"0  c #312B2F",
"q  c #373028",
"w  c #2F2E31",
"e  c #382D36",
"r  c #2D3035",
"t  c #353234",
"y  c #3A3936",
"u  c #3B3139",
"i  c #383739",
"p  c #42291C",
"a  c #453329",
"s  c #41313D",
"d  c #463C39",
"f  c #43403D",
"g  c #4B413B",
"h  c #55453B",
"j  c #3F3D42",
"k  c #444343",
"l  c #4D4645",
"z  c #4A4945",
"x  c #444548",
"c  c #4D474A",
"v  c #4D4C4A",
"b  c #524443",
"n  c #574E54",
"m  c #5A4F56",
"M  c #555553",
"N  c #595255",
"B  c #5B5A56",
"V  c #55565A",
"C  c #5C555A",
"Z  c #575A5D",
"A  c #5B5A5D",
"S  c #6D4B4B",
"D  c #764B4D",
"F  c #7C4F4F",
"G  c #72514F",
"H  c #614E52",
"J  c #734F51",
"K  c #7A4E50",
"L  c #7C4E59",
"P  c #685758",
"I  c #6B5759",
"U  c #6D5A5C",
"Y  c #755552",
"T  c #7B5354",
"R  c #795A55",
"E  c #7D555B",
"W  c #705C5D",
"Q  c #7C5A59",
"!  c #60615C",
"~  c #7F605D",
"^  c #5C5C61",
"/  c #635760",
"(  c #6A5C63",
")  c #765B63",
"_  c #5C6061",
"`  c #656166",
"'  c #6C6D6F",
"]  c #727276",
"[  c #79797B",
"{  c #825559",
"}  c #845659",
"|  c #83595A",
" . c #80615E",
".. c #8B5C66",
"X. c #846160",
"o. c #94606C",
"O. c #9C706F",
"+. c #957271",
"@. c #9A7575",
"#. c #9C767B",
"$. c #AA6E76",
"%. c #A46F79",
"&. c #A96E7A",
"*. c #A77477",
"=. c #A3747E",
"-. c #AC737C",
";. c #A37B7B",
":. c #B0747D",
">. c #AE8B78",
",. c #B58F7C",
"<. c #B0927C",
"1. c #AB7682",
"2. c #A57881",
"3. c #B37781",
"4. c #AE8484",
"5. c #A68D87",
"6. c #B68B8B",
"7. c #BB8C8E",
"8. c #B1948E",
"9. c #BE928E",
"0. c #B58E91",
"q. c #BB8E94",
"w. c #B69593",
"e. c #BC9494",
"r. c #BA9996",
"t. c #BD9599",
"y. c #BE9B9A",
"u. c #A3A29E",
"i. c #BC96A1",
"p. c #BEB5BD",
"a. c #C08F8B",
"s. c #C3938E",
"d. c #C28F94",
"f. c #CA8F95",
"g. c #C49593",
"h. c #CA9494",
"j. c #C49995",
"k. c #CA9995",
"l. c #C3969A",
"z. c #C9969C",
"x. c #C39A9B",
"c. c #C99B9B",
"v. c #C2A09F",
"b. c #CEA19E",
"n. c #CBB29E",
"m. c #D4B49F",
"M. c #C596A0",
"N. c #C69BA2",
"B. c #CC9CA2",
"V. c #C5A2A3",
"C. c #CBA1A2",
"Z. c #CDACA6",
"A. c #CDA6A9",
"S. c #C8ADA8",
"D. c #D2A7A6",
"F. c #D7AAAA",
"G. c #D4ACAB",
"H. c #CCB4AA",
"J. c #D5B6A9",
"K. c #DBB1AE",
"L. c #D3AFB1",
"P. c #CFBDB1",
"I. c #DBB3B3",
"U. c #E4BDBD",
"Y. c #DEC1AF",
"T. c #EAC3B2",
"R. c #BFB8C0",
"E. c #C4B7C1",
"W. c #C4BAC2",
"Q. c #D9D8D3",
"!. c #DEDADC",
"~. c #E9C1C1",
"^. c #F1CFC6",
"/. c #F1CCC9",
"(. c #E8D6CA",
"). c #F2D6C6",
"_. c #FED7C4",
"`. c #FFDBC5",
"'. c #FFD7CD",
"]. c #F5DBCC",
"[. c #E1DED7",
"{. c #EDDBD3",
"}. c #E3D6DF",
"|. c #FBD8D1",
" X c #FBD9D3",
".X c #E6E2DF",
"XX c #EAE1DC",
"oX c #F6E4D9",
"OX c #E5DEE4",
"+X c #E8E6E1",
"@X c #E8E6E4",
"#X c #FDEDE4",
"$X c #FFF1EA",
"%X c #FFFEF5",
"&X c #FEFDFC",
/* pixels */
"I I U U U W U U U U W U U I I U U I I W I U U U ) U H ( ) U I ( ",
"t.y.V.A.G.L.L.L.y.x.N.x.y.t.y.8 w w l.l.l.t.M.l.q.N.N.t.#.) 2.i.",
"g.g.l.l.l.l.l.g.l.l.z.l.l.+ t C M 8 8 8 t 8 l.l.B.q.l.q.M...q.M.",
"k.k.k.g.g.g.s.s.s.s.g.g.0 0 N C y z B M z 8 @.;.;.e.t.T E S V.t.",
"s.s.s.s.s.k.k.k.k.g.& t c C ` k y B M z 6 % G.K.e.x.x.e.4.T w.y.",
"k.k.k.h.s.s.s.s.h.= 6 t A A j C B ! k 6 y 8 % g.l.l.g.z.7.} l.g.",
"g.g.g.g.g.g.g.g.g.t x A ] Z ^ V V V V A ' x w g.g.g.j.l.l.F j.e.",
"w.r.y.y.r.r.r.r.w.r Z Z ] ] x Z ] [ Z M ^ Z 7 i y.y.x.w.+.X.@.r.",
"~ R Y Y Y Y Y Y Q 7 Z V _ k v M C A i ` Z Z ^ 7 Y S Y  .Q G G Y ",
"D.c.e.g.l.l.l.x.q.$ V A k f v z I N c c A C j = G.c.e.e.e.x.G.I.",
"l.g.l.z.l.q.g.c.B.% v l f q g g d b 6 l d v - + g.g.c.z.g.e.g.l.",
"l.l.l.l.7.1.4.6.;.& d d oX(.1 h h 9 {.#Xg d o g.k.g.g.g.d.g.h.g.",
"s.s.s.k.b.b.D.K.e.O h a oX].].).).).].(.1 h > k.g.s.g.k.g.k.k.s.",
"k.s.s.s.g.g.g.j.g.: H.< J.>.,.`.`.<.<.n.p P.o s.g.s.g.g.9.9.g.j.",
"s.s.j.g.s.s.g.j.s.o P.p J.T.; _._.X m.Y.1 S.: j.j.9.g.j.g.g.j.s.",
"e.x.e.x.e.j.e.y.e.x.  . Z.#XX '.'.X #XZ..   l.e.l.j.g.g.l.l.c.g.",
"T T T T T T T T | | D . 5. X^. X X^. X5.. T T T Q D T { T { D { ",
"x.x.C.C.I.I.~.~.U.G.x.G.  . 8.H.H.8..   y.y.r.y.r.8.V.v.+.T ;.w.",
"j.g.j.9.g.9.g.g.g.x.e.& XX$X{.{.{.{.$XXXO w.w.r.r.w.w.r.y.Q y.w.",
"9.s.g.j.g.j.l.j.j.j.= +X.X&X%X%X%X%X&X+X.X& g.j.e.Z.e.6.x.G w.y.",
"g.k.g.k.s.k.s.g.j.9.- &Xu.Q.@X!.[.+XQ.u.&X- c.g.e.6.c.x.;.T t.x.",
"g.g.g.g.g.g.g.g.9.3 !.&X3 @X&X&X&X&X+X3 &X!.3 *.c.} D T T K C.e.",
"l.g.z.9.l.9.l.l.* W.OX* 3 !.&X&X&X&X!.3 = OXW.* K.F.j.e.x.K l.x.",
"e.z.g.c.7.j.g.l., }.E.3 3 m n u u n m 3 3 E.}., r.r.x.w.@.X.@.y.",
"| K D } } T F | { 4 , T @ / ( * * ( / @ R , 4 Q T Y Y Q T J J E ",
"e.l.c.g.e.l.l.e.q.t.N.x.2 s # t.r.# s 2 Z.G.I.U./.~.I.A.N.M.l.t.",
"j.j.l.j.g.e.e.x.x.t.t.0.2 e 5 y.e.5 e , j.j.j.c.q.l.z.l.d.l.z.M.",
"g.9.*.O.;.C.e.*.g.t.E * / C # e.l.* C / * -.-.$.-.-.-.-.1.1.-.=.",
"k.k.k.F.g.e.g.K.D.C.D.% R.p.# l.g.# p.P.% -.:.-.3.-.&.&.-.1.1.1.",
"a.s.s.k.g.c.g.9.c.6.c.e.% - e.g.h.h.- % $.$.:.-.&.-.1.1.1.2.=.=.",
"k.g.g.s.g.s.g.g.g.g.g.j.e.T c.g.h.h.h.:.-.-.-.-.1.%.o.{ L E E E ",
"a.s.s.k.g.c.g.9.c.6.c.e.e.T e.g.h.h.f.-.$.$.:.-.&.-.1.1.1.2.=.=."
};