/* XPM */
static char *result[] = {
/* columns rows colors chars-per-pixel */
"32 32 6 1 ",
"  c #2F2E2F",
". c #302C2E",
"X c #3E2F5A",
"o c #564064",
"O c #85578E",
"+ c #BE9BB0",
/* pixels */
"O++++++++++O O++++++++++++++O O+",
"+OOOOOOOOOO+ +OOOOOoOOOoOOOO+ +O",
"OOooooOoooOO OOooOoooOooooooO Oo",
"OooooooooXXO OXXooooooooooXoo oo",
"oOooXXXXXXXX XXXXXXooXXXXXXXX XX",
"XooXXXXXXXX   XXXXXXXXXXXXXX   X",
"                                ",
"oOOOOOOOOOOOOOOOOOOO   OOOOOOOOO",
"OOOOOOOOOOOOOOooOOOOO OOOOOOooOO",
"OOoooOooOoooOooooOoOO OOoOoooooO",
"OoOoooooooXoooXXXooXO OXooooXXoo",
"OoooooXooXXXooooooXXX XXXooXXooo",
"oOoooXXXXXXXXXXooXXXX XXXXXXXXXX",
"XooXXXXXXXXXXXXXXXXX   XXXXXXXXX",
"                                ",
"oOOOOOOOO   OOOOOOOOOOOO   OOOOO",
"OOOOOOoOOO OOOOOOoOOOOOOO OOOoOO",
"OOOoOoooOO OOooOooooOooOO OOoooo",
"OOooXooooO OoooooXooXoooO OooXoo",
"OoOooXoooX XooooXXoooXooX XoooXo",
"OooooXXoXX XXoXXXooXoooXX XXoooo",
"oOooXXXXXX XXXXXXXXXXoXXX XXXoXX",
"XoXXXXXXX   XXXXXXXXXXXX   XXXXX",
"                                ",
"oOOOOOOOOOOOOOOOOOO   OOOOOOOOOO",
"OOOoOOOOOOOOoOOOoOOO OOOOOOOOoOO",
"OOOOoOOOooOoooOoooOO OOooOoooooo",
"OOooOXOXooooooXoooXO OXooooooXoX",
"OooooXXXXoXXoooooXXX XXXooooXXoo",
"oOooXXXXXXXXXXXoXXXX XXXXoXXXXXX",
"XoXXXXXXXXXXXXXXXXX   XXXXXXXX..",
"                                "
};